<svg width="386" height="81" viewBox="0 0 386 81" fill="none" xmlns="http://www.w3.org/2000/svg">
<path d="M305.912 77.3868H285.286C285.151 76.2346 285 75.2988 284.941 74.3572C284.889 73.4097 284.93 72.4622 284.93 71.0058C283.984 71.7486 283.459 72.1171 282.992 72.544C277.255 77.8196 270.449 79.5391 262.815 79.001C254.749 78.4337 247.727 75.5444 241.774 70.1227C236.527 65.3443 233.136 59.3669 231.403 52.5297C229.459 44.8737 229.19 37.1242 231.192 29.4272C234.729 15.7997 243.076 6.5938 256.768 2.97343C265.803 0.581304 274.523 1.59314 282.093 7.78694C282.91 8.45955 283.681 9.18479 284.825 10.2025C284.935 7.96826 285.035 6.02648 285.14 3.86245H305.9C306.805 6.34816 306.852 74.5034 305.918 77.3868H305.912ZM286.243 41.4464C286.64 34.6501 284.346 28.971 278.988 24.8009C272.177 19.5019 263.579 19.5136 256.838 25.1343C247.599 32.8312 246.998 48.1198 257.2 56.2495C262.593 60.5483 268.605 61.3262 274.92 58.6182C282.408 55.4073 285.782 49.3655 286.249 41.4464H286.243Z" fill="#333333"/>
<path d="M164.92 40.318C165.125 57.6127 153.563 73.0241 138.971 78.1651C132.452 80.4636 125.786 81.417 118.707 80.0425C106.73 77.7206 97.5608 71.6379 91.3566 61.2213C86.5356 53.1267 84.6562 44.3536 86.1153 34.9021C88.45 19.7948 96.7028 9.24953 110.617 3.35402C117.569 0.406257 124.864 -0.412555 132.498 1.20754C140.051 2.81009 146.646 5.99765 152.185 11.2264C157.8 16.5254 161.81 22.9122 163.38 30.5974C164.033 33.8083 164.413 37.0778 164.92 40.318ZM146.95 43.9033C147.644 39.8618 146.804 36.6859 145.508 33.6036C139.823 20.0872 121.8 16.2446 110.746 25.7547C106.1 29.7552 103.392 34.7324 103.24 40.9555C103.176 43.5523 103.467 43.8623 105.872 44.7806C107.32 45.3303 108.749 45.9503 110.104 46.6931C116.086 49.9859 119.845 55.2088 122.425 61.3559C123.458 63.8123 124.135 66.4267 124.969 68.9651C125.162 69.0879 125.349 69.2048 125.541 69.3277C128.191 56.8582 134.436 47.5002 146.944 43.9033H146.95Z" fill="#333333"/>
<path d="M56.3306 48.559C57.2295 48.4361 58.1691 48.1963 59.1088 48.1905C63.8715 48.1554 68.6399 48.1554 73.4026 48.1905C76.3092 48.2139 76.7411 48.7227 76.3675 51.7524C74.7625 64.6196 67.496 72.9774 55.6594 77.5628C50.6633 79.4987 45.4922 80.7211 40.0875 80.8966C32.3774 81.1481 25.321 79.025 18.7024 75.2467C9.90085 70.2227 4.24523 62.6837 1.5896 52.9572C-0.383157 45.7165 -0.441522 38.388 0.982597 30.9894C2.42423 23.4796 5.79192 17.0636 11.1674 11.7062C16.6771 6.20835 23.249 2.83362 30.9475 1.29541C34.7295 0.540921 38.4883 0.160762 42.2178 0.517534C56.745 1.91538 68.4765 7.78164 74.7274 21.9063C76.1983 25.2342 76.6593 28.258 76.0173 31.3871C69.5621 31.3988 63.0077 31.3988 56.459 31.3754C55.5194 29.65 54.8423 28.0182 53.8326 26.6262C50.4649 21.9824 45.7898 19.83 40.1109 19.5727C31.9572 19.1984 26.1265 22.8597 22.2393 29.8372C20.2491 33.4049 19.6888 37.3762 19.8697 41.4001C20.2199 49.1029 23.4475 55.3435 30.1303 59.3206C39.1653 64.7014 52.461 60.8647 55.4201 50.6119C55.6069 49.9685 55.9688 49.3836 56.3365 48.5648L56.3306 48.559Z" fill="#333333"/>
<path d="M375.085 40.0367C376.427 40.9432 377.489 41.5983 378.493 42.3411C382.807 45.552 384.937 49.7573 385.188 55.2492C385.777 67.8942 376.847 75.0472 367.667 77.6382C361.649 79.3401 355.462 80.1414 349.223 79.7028C340.894 79.112 332.781 77.4861 326.25 71.7368C319.894 66.1396 317.005 59.01 317.49 50.5819C319.97 49.7924 335.221 49.7164 338.221 50.4533C338.42 51.4593 338.659 52.5764 338.857 53.7052C339.581 57.8987 341.787 60.9342 345.914 62.1858C350.484 63.572 355.118 63.765 359.513 61.5366C363.505 59.513 364.97 54.4187 362.898 50.4942C361.818 48.4472 360.213 47.1897 357.867 47.061C354.091 46.8505 350.309 46.6867 346.526 46.4878C345.388 46.4293 344.256 46.3358 342.744 46.2363C342.587 41.7679 342.61 37.5334 342.762 32.9363C343.976 32.7375 345.062 32.4451 346.159 32.4041C349.655 32.2754 353.163 32.3983 356.641 32.1175C360.272 31.8251 362.221 29.819 362.659 26.4911C363.126 22.9526 361.906 20.5546 358.614 19.2971C354.301 17.6478 349.918 17.484 345.563 19.3147C342.097 20.771 340.287 23.4322 339.75 27.0818C339.61 28.0234 339.388 28.9475 339.167 30.0822H318.984C318.114 27.9591 318.459 25.9237 318.861 23.9585C320.974 13.6355 327.499 7.33063 337.147 3.82724C344.355 1.20701 351.82 0.838537 359.262 1.79773C364.521 2.47618 369.651 4.09042 374.32 6.90366C380.653 10.717 384.394 18.993 383.314 26.725C382.626 31.6379 380.338 35.4922 376.614 38.6096C376.176 38.9781 375.785 39.3933 375.096 40.0425L375.085 40.0367Z" fill="#333333"/>
<path d="M225.56 3.83936C225.7 5.06759 225.916 6.1613 225.939 7.25501C226.021 11.1386 226.079 15.0221 226.038 18.9057C226.027 19.8766 225.63 20.8475 225.379 21.9587H195.951C195.834 23.3098 195.653 24.4503 195.653 25.5849C195.636 38.5457 195.624 51.5123 195.653 64.4731C195.659 67.684 195.91 70.895 195.916 74.1059C195.916 77.1297 195.326 77.6269 192.291 77.6269C186.56 77.6269 180.828 77.6269 175.155 77.6269C173.112 75.5097 173.912 73.0766 173.912 70.8248C173.912 69.1813 174.268 67.5437 174.274 65.9002C174.303 46.4064 174.291 26.9126 174.309 7.42463C174.309 6.28997 174.466 5.16117 174.56 3.83936H225.548H225.56Z" fill="#333333"/>
</svg>
