<svg width="30" height="30" viewBox="0 0 30 30" fill="none" xmlns="http://www.w3.org/2000/svg">
<path d="M29.634 0.36599C29.3996 0.131647 29.0817 0 28.7502 0C28.4188 0 28.1009 0.131647 27.8665 0.36599L15 13.2325L2.13352 0.36599C1.89911 0.131647 1.58122 0 1.24976 0C0.918294 0 0.600403 0.131647 0.36599 0.36599C0.131647 0.600403 0 0.918294 0 1.24976C0 1.58122 0.131647 1.89911 0.36599 2.13352L13.2325 15L0.36599 27.8665C0.131647 28.1009 0 28.4188 0 28.7502C0 29.0817 0.131647 29.3996 0.36599 29.634C0.600403 29.8684 0.918294 30 1.24976 30C1.58122 30 1.89911 29.8684 2.13352 29.634L15 16.7675L27.8665 29.634C28.1009 29.8684 28.4188 30 28.7502 30C29.0817 30 29.3996 29.8684 29.634 29.634C29.8684 29.3996 30 29.0817 30 28.7502C30 28.4188 29.8684 28.1009 29.634 27.8665L16.7675 15L29.634 2.13352C29.8684 1.89911 30 1.58122 30 1.24976C30 0.918294 29.8684 0.600403 29.634 0.36599Z" fill="white"/>
</svg>
