<svg width="375" height="113" viewBox="0 0 375 113" fill="none" xmlns="http://www.w3.org/2000/svg">
<path d="M125.054 36.9924C128.801 25.423 132.414 14.2713 135.958 3.33389C139.085 2.57866 156.627 2.69114 158.792 3.46244C158.487 4.61938 158.22 5.81918 157.851 6.98148C152.939 22.3539 148.016 37.7155 143.093 53.0825C142.008 56.4784 140.982 59.901 139.838 63.2754C136.284 73.7415 129.308 80.9296 118.912 84.5986C113.364 86.5536 107.613 86.9232 101.813 85.6323C101.477 85.5573 101.172 85.3538 100.621 85.1074C101.172 84.5022 101.594 83.9772 102.081 83.5166C106.587 79.1834 110.889 74.711 113.973 69.1673C117.218 63.329 119.329 57.164 120.259 50.549C120.959 45.557 121.072 40.6025 120.051 35.6534C117.64 23.9768 110.617 16.1192 99.8464 11.4914C90.4337 7.44747 80.5988 7.29749 70.7318 9.0222C57.818 11.2772 46.5078 17.0673 36.4858 25.4819C28.5003 32.1825 22.2679 40.2169 18.0667 49.7617C14.0472 58.8887 12.5024 68.3638 14.9879 78.1979C17.1366 86.6929 21.9365 93.2917 29.3929 97.9784C35.4275 101.771 42.0287 103.544 49.0575 104.111C61.8856 105.145 73.6983 101.781 84.971 95.9698C85.1154 95.8949 85.3078 95.9056 85.7728 95.8306V100.239C81.903 102.906 77.6323 104.877 73.2707 106.666C62.2865 111.171 50.8481 113.094 39.0408 112.039C28.5804 111.101 19.0502 107.502 11.38 100.078C6.16853 95.0271 2.67819 88.8621 1.07466 81.6741C-1.48563 70.1903 0.732578 59.4029 5.56988 48.9422C12.1657 34.6892 22.439 23.6179 35.358 15.0372C46.7804 7.44211 59.2879 2.58937 73.0622 1.10034C82.1114 0.120149 90.8613 1.00928 99.3119 4.19088C109.965 8.19734 117.929 15.2836 122.125 26.0657C123.408 29.3544 123.985 32.9217 125.054 36.9978V36.9924Z" fill="#333333"/>
<path d="M170.64 3.07153C174.013 2.49841 191.261 2.62696 193.383 3.26435C190.753 12.9805 187.284 22.4664 184.446 32.7665C187.146 30.956 189.155 29.3706 191.373 28.1708C198.253 24.4536 205.538 22.761 213.235 25.0428C219.547 26.9121 223.487 33.4842 222.145 39.9277C221.333 43.8378 219.996 47.6407 218.783 51.4597C215.378 62.1668 211.915 72.8632 208.467 83.5542C208.2 84.3844 207.863 85.1986 207.505 86.1627H184.542C184.831 85.0004 185.002 84.0523 185.296 83.1471C188.925 71.9473 192.485 60.726 196.264 49.5797C197.846 44.909 194.121 40.7258 189.401 41.9577C183.682 43.4468 179.727 46.8212 177.899 52.4238C174.638 62.4292 171.538 72.4882 168.363 82.5205C168.015 83.6185 167.609 84.7004 167.107 86.1306C159.629 86.6876 152.135 86.2484 144.203 86.3662C144.588 84.829 144.802 83.7202 145.144 82.6544C150.762 64.9735 156.39 47.2925 162.018 29.617C164.477 21.8826 166.93 14.1482 169.405 6.41381C169.779 5.24615 170.255 4.11063 170.64 3.07688V3.07153Z" fill="#333333"/>
<path d="M362.508 84.2066C360.209 84.8922 343.581 85.0154 340.63 84.4584C338.946 82.9908 339.406 80.768 338.93 78.6308C337.402 79.5521 336.071 80.3984 334.697 81.1643C326.476 85.7707 317.7 87.4686 308.431 85.7117C299.163 83.9603 295.368 74.9511 298.858 66.4722C300.954 61.3838 304.711 57.7897 309.522 55.3205C314.728 52.6424 320.42 51.5712 326.113 50.4571C332.826 49.1394 339.508 47.6236 346.157 46.0007C349.535 45.1758 350.23 43.7511 349.77 40.0553C344.131 36.4452 336.135 36.5094 329.699 44.7098C322.874 43.9546 315.786 43.1726 308.17 42.3317C309.046 40.8266 309.554 39.7178 310.27 38.7644C316.31 30.6497 324.37 25.6631 334.334 24.3133C339.679 23.5902 345.157 23.6813 350.572 23.7563C354.105 23.8045 357.676 24.249 361.15 24.9079C368.254 26.2576 373.481 32.1709 374.085 39.3804C374.213 40.9337 373.983 42.6102 373.524 44.1099C370.295 54.5921 366.981 65.0421 363.657 75.4921C362.743 78.3684 361.626 81.1965 362.508 84.212V84.2066ZM345.051 57.5969C343.843 57.6505 342.779 57.5648 341.774 57.7737C339.513 58.2504 337.257 58.786 335.045 59.4555C332.153 60.3339 329.234 61.1963 326.482 62.4122C325.007 63.0656 323.638 64.2708 322.617 65.5456C321.297 67.2006 321.505 69.3324 322.361 71.1267C323.157 72.7979 324.98 73.3442 326.706 73.2264C333.062 72.7925 338.369 70.2697 342.116 64.9189C343.607 62.7925 344.698 60.5053 345.045 57.5969H345.051Z" fill="#333333"/>
<path d="M79.9691 40.4425C78.2213 38.5625 75.971 37.9465 73.6673 37.7912C68.6803 37.4537 64.3615 38.9963 61.1544 43.0189C60.3206 44.0687 59.4547 44.7168 58.0062 44.5454C52.0945 43.8384 46.1722 43.2117 40.2552 42.5315C39.7474 42.4725 39.2556 42.2744 38.534 42.0815C38.7746 41.4174 38.8761 40.8067 39.1861 40.3461C44.5633 32.4243 51.854 27.2448 61.1437 24.872C67.5471 23.233 74.0628 23.6668 80.541 23.7418C84.0741 23.7847 87.6393 24.2614 91.1243 24.8988C99.9544 26.511 105.754 35.5148 103.386 44.2508C101.451 51.3853 98.9976 58.3805 96.7794 65.4347C95.3362 70.0303 93.8182 74.5992 92.5247 79.2377C92.0864 80.8017 92.2361 82.5318 92.0864 84.5725C91.3488 84.6314 90.4187 84.7707 89.494 84.7707C84.149 84.7921 78.8039 84.7867 73.4641 84.7814C70.2036 84.776 69.4019 84.0529 69.0331 80.8338C68.9636 80.2232 68.9529 79.6126 68.8888 78.6271C67.9266 79.2002 67.1944 79.6126 66.4888 80.0679C57.7763 85.6759 48.2728 87.5398 38.1385 85.7187C30.6928 84.3797 26.4969 77.2934 27.6835 70.6945C29.1695 62.4084 34.4557 57.4111 41.8373 54.2669C47.3748 51.9102 53.3132 51.1228 59.15 49.9284C64.7249 48.7929 70.2785 47.5235 75.7946 46.1255C79.4346 45.2042 79.6484 44.7168 79.9745 40.4425H79.9691ZM75.0516 57.6682C74.3033 57.6307 73.7581 57.486 73.2717 57.5985C67.4616 58.8894 61.6194 60.0892 56.098 62.3977C54.1363 63.2172 52.7359 64.7223 51.8861 66.6773C50.5124 69.8321 52.2228 72.6977 55.6436 72.987C58.824 73.2601 61.8546 72.6335 64.7142 71.2623C70.3961 68.5359 73.6245 63.9403 75.0516 57.6682Z" fill="#333333"/>
<path d="M278.404 23.9607H301.259C300.992 25.0481 300.837 25.8783 300.581 26.6763C296.053 40.5758 291.505 54.4698 286.972 68.3692C285.454 73.0291 283.92 77.6837 282.477 82.3704C281.99 83.9505 281.183 84.7861 279.462 84.7753C273.23 84.7325 266.997 84.7593 260.765 84.7325C260.263 84.7325 259.76 84.5129 258.958 84.3254C259.53 82.2954 260.065 80.3832 260.786 77.8123C259.637 78.4175 259.007 78.6264 258.526 79.0228C253.031 83.5541 246.553 85.7234 239.62 86.2483C234.767 86.6125 229.977 85.7609 226.466 81.7491C223.606 78.4818 222.158 74.6521 223.211 70.3778C224.574 64.8502 226.247 59.3922 227.957 53.961C230.635 45.4553 233.446 36.9978 236.215 28.5242C236.653 27.1745 237.151 25.8461 237.706 24.2714C245.264 24.0893 252.764 23.9072 260.594 23.7144C260.396 24.8552 260.354 25.5408 260.15 26.1729C256.697 36.955 253.223 47.7263 249.76 58.5031C249.407 59.6064 248.995 60.7045 248.771 61.8346C247.91 66.1892 251.326 69.4137 255.623 68.3585C261.529 66.907 265.517 63.4576 267.377 57.5175C270.6 47.2228 273.957 36.971 277.276 26.7085C277.57 25.7979 278.008 24.9356 278.415 23.9661L278.404 23.9607Z" fill="#333333"/>
<path d="M171.713 105.477V96.8378H174.166C174.936 98.7982 175.134 108.322 174.524 111.728C172.322 112.607 172.034 112.585 170.761 110.828C168.992 108.391 167.308 105.89 165.064 103.485V111.958C163.936 112.033 163.198 112.082 162.188 112.151C161.621 106.988 162.07 102.055 161.905 97.2074C163.61 96.3022 164.721 96.5807 165.625 97.9037C167.127 100.11 168.655 102.301 170.179 104.492C170.467 104.91 170.799 105.295 171.109 105.697C171.312 105.622 171.515 105.552 171.718 105.477H171.713Z" fill="#333333"/>
<path d="M237.155 101.047C236.465 101.25 235.808 101.443 235.263 101.609C234.963 101.443 234.787 101.384 234.669 101.266C232.36 98.9312 229.795 98.6259 227.913 100.474C226.122 102.236 226.224 106.912 228.095 108.605C229.287 109.686 232.943 109.831 234.135 108.744C234.525 108.385 234.637 107.721 234.969 106.998C233.584 106.816 232.467 106.666 231.136 106.489V103.773H237.016C238.341 106.532 237.668 109.269 237.556 111.974C237.299 112.161 237.048 112.488 236.887 112.45C234.803 111.925 232.75 112.632 230.698 112.595C227.945 112.541 225.786 111.293 224.433 108.776C222.691 105.525 223.119 101.047 225.465 98.5187C227.496 96.328 232.376 95.6424 234.883 97.2814C236.15 98.1117 237.262 99.1454 237.16 101.042L237.155 101.047Z" fill="#333333"/>
<path d="M185.167 112.627C180.81 112.606 177.47 109.21 177.438 104.732C177.411 100.779 180.137 96.344 185.327 96.4511C189.288 96.5315 192.864 99.3167 192.933 104.71C192.987 109.07 189.341 112.643 185.167 112.622V112.627ZM181.072 104.303C181.147 104.325 181.227 104.341 181.302 104.362C181.302 104.721 181.292 105.075 181.302 105.434C181.382 107.849 182.361 109.103 184.397 109.397C186.578 109.718 188.422 108.776 188.908 106.617C189.245 105.123 189.272 103.366 188.823 101.92C188.042 99.3917 183.414 98.8454 181.954 101.063C181.372 101.952 181.345 103.216 181.067 104.303H181.072Z" fill="#333333"/>
<path d="M213.352 96.4996C218.184 96.3389 220.905 99.7669 221.188 104.496C221.45 108.921 217.655 112.707 213.384 112.627C208.884 112.541 205.666 109.087 205.735 104.411C205.805 99.7722 208.98 96.4781 213.347 96.4996H213.352ZM209.482 104.373C209.53 104.384 209.584 104.389 209.632 104.4C209.632 104.759 209.621 105.112 209.632 105.471C209.723 107.903 210.68 109.103 212.764 109.403C215.025 109.729 216.885 108.615 217.329 106.323C217.591 104.968 217.511 103.473 217.238 102.108C216.987 100.843 216.089 99.8793 214.603 99.8847C212.946 99.8847 211.043 99.4026 210.086 101.293C209.632 102.188 209.669 103.339 209.488 104.373H209.482Z" fill="#333333"/>
<path d="M115.04 96.7993H126.254C126.383 97.5117 126.495 98.1491 126.693 99.231H118.659C118.531 100.436 118.44 101.266 118.317 102.439H125.709C125.837 103.511 125.928 104.293 126.067 105.476H118.766V109.461H126.554C126.628 110.533 126.677 111.277 126.757 112.423C122.876 112.729 119.225 112.638 115.163 112.456C114.805 107.196 114.981 102.198 115.046 96.7939L115.04 96.7993Z" fill="#333333"/>
<path d="M155.305 96.8102C156.347 96.762 157.095 96.7298 158.245 96.6763C158.442 101.925 158.346 106.933 158.303 112.129H155.267C155.139 110.104 155.016 108.106 154.877 105.884H148.848C148.741 107.956 148.639 109.869 148.533 111.99C147.512 112.113 146.688 112.209 145.4 112.365C145.309 107.046 145.293 102.043 145.416 96.8209H148.495C148.613 98.7545 148.72 100.581 148.843 102.665H154.84C154.984 100.838 155.128 99.0277 155.299 96.8102H155.305Z" fill="#333333"/>
<path d="M142.439 101.068C141.322 101.341 140.398 101.571 139.553 101.775C136.923 99.0001 135.026 98.6787 133.128 100.58C131.204 102.508 131.29 106.799 133.283 108.631C135.026 110.232 137.297 109.595 139.697 106.654C140.547 106.879 141.515 107.131 142.477 107.383C141.231 112.401 135.453 114.228 131.327 111.153C126.704 107.715 127.361 99.7821 132.482 97.1468C136.314 95.1757 141.151 96.9165 142.434 101.062L142.439 101.068Z" fill="#333333"/>
<path d="M252.275 96.774C250.64 99.5806 249.4 102.039 247.85 104.278C246.161 106.72 247.668 109.554 246.487 112.312C245.787 112.377 244.974 112.452 243.889 112.548C243.798 111.413 243.595 110.545 243.686 109.709C243.996 106.892 243.13 104.498 241.484 102.243C240.351 100.689 239.458 98.9646 238.148 96.8114C239.672 96.7257 240.655 96.6722 241.783 96.6079C242.89 98.429 243.937 100.164 245.225 102.286C246.433 100.379 247.524 98.6486 248.71 96.774H252.27H252.275Z" fill="#333333"/>
<path d="M104.702 99.6069C102.997 99.4248 101.789 99.2962 100.367 99.1409V96.7842H112.1V99.0766C110.811 99.2427 109.614 99.3927 108.069 99.5908V112.317H104.702V99.6069Z" fill="#333333"/>
<path d="M195.287 96.8096H198.285V109.193C200.669 109.343 202.743 109.477 205.009 109.622V112.257C201.797 112.878 198.665 112.605 195.281 112.45V96.8149L195.287 96.8096Z" fill="#333333"/>
</svg>
