<svg width="480" height="116" viewBox="0 0 480 116" fill="none" xmlns="http://www.w3.org/2000/svg">
<path d="M178.494 3.15378V24.5329C177.557 24.3204 176.825 24.2244 176.148 23.9914C170.252 21.9556 164.28 21.0645 158.083 22.5108C150.778 24.2175 144.779 30.51 143.821 39.3591C143.37 43.5404 143.596 47.7284 144.95 51.8617C147.453 59.5181 153.507 63.6514 161.216 64.3094C166.038 64.7207 170.731 63.9256 175.334 62.5136C176.401 62.1846 177.468 61.8761 178.836 61.4648C179.425 68.8951 178.871 76.0374 178.713 83.1866C174.951 85.0305 171.073 85.4486 167.311 86.0998C163.973 86.6756 160.518 86.9429 157.132 86.8264C149.246 86.5659 141.543 85.2567 134.423 81.5484C125.277 76.7845 119.019 69.4434 115.968 59.6758C112.52 48.6401 112.411 37.4467 116.371 26.459C121.221 13.031 130.921 5.05245 144.697 1.93366C155.662 -0.54766 166.585 0.0898312 177.448 2.68768C177.762 2.76308 178.05 2.955 178.508 3.16064L178.494 3.15378Z" fill="#333333"/>
<path d="M41.1165 59.7655C43.4764 49.8402 45.8363 39.915 48.1619 30.1336C50.7338 29.3591 76.5967 29.1603 81.1386 29.8663C81.6995 33.2181 81.3848 36.7345 81.378 40.2097C81.3643 43.5821 81.7884 47.0025 80.9676 50.6696H69.9617C69.7838 62.3771 69.9754 73.7418 69.8454 85.2436C66.993 85.9701 64.3459 85.7028 61.4388 85.4218C60.8026 81.8095 61.1925 78.2794 61.1241 74.7836C61.0557 71.2467 61.1104 67.703 61.1104 64.166C61.1104 60.6291 61.1104 57.0854 61.1104 53.5485C61.1104 50.0253 61.1104 46.5021 61.1104 42.9789C60.8984 42.9446 60.6863 42.9104 60.4675 42.8761C58.6069 49.9019 56.7327 56.9209 54.8927 63.9467C53.0185 71.0823 51.1716 78.2246 49.2837 85.4767H30.5689C26.9025 71.1234 23.2567 56.8592 19.6109 42.6019C18.236 45.3505 18.7832 48.154 18.6875 50.8958C18.5849 53.7473 18.6738 56.6056 18.6738 59.457C18.6738 62.3085 18.6738 65.1668 18.6669 68.0183C18.6669 70.8697 18.6669 73.728 18.6669 76.5795C18.6669 79.431 18.6669 82.255 18.6669 85.0174C16.1087 85.7988 4.82919 85.9702 0.513016 85.3601C0.451454 85.2916 0.362529 85.2162 0.294127 85.1202C0.232565 85.0311 0.143644 84.9283 0.143644 84.8255C0.0889221 67.2506 0.0410413 49.6689 0 32.094C0 31.4154 0.0889224 30.7437 0.157325 29.784C1.06023 29.6812 1.91526 29.4961 2.77712 29.4961C11.7788 29.4756 20.7806 29.4687 29.7823 29.4893C32.792 29.4961 32.9083 29.599 33.6607 32.615C35.7127 40.8952 37.7374 49.189 39.7895 57.4692C39.9742 58.2301 40.2615 58.9635 40.5009 59.7106L41.1165 59.7655Z" fill="#333333"/>
<path d="M255.855 84.078H239.364C238.707 81.3088 238.652 44.0753 239.261 40.9908C241.573 40.2299 257.606 39.9763 263.968 40.6343C266.321 46.3578 267.388 52.6502 269.666 59.114C271.643 55.9198 271.916 52.7256 272.922 49.8056C273.948 46.8102 274.727 43.7326 275.658 40.5658H300.59C300.734 41.5254 300.973 42.389 300.98 43.2527C301.001 55.9266 301.001 68.5937 300.98 81.2677C300.98 82.1382 300.761 83.0087 300.618 84.0437H284.126V57.3866C283.914 57.3592 283.702 57.3318 283.49 57.3044C280.87 66.1604 278.25 75.0232 275.589 84.0368H264.399C262.497 79.8762 261.745 75.2494 260.329 70.8488C258.947 66.5579 257.825 62.1779 256.594 57.839C256.355 57.8733 256.115 57.9076 255.876 57.9487V84.0849L255.855 84.078Z" fill="#333333"/>
<path d="M181.016 40.3739C188.697 40.4424 195.688 40.2025 202.87 40.5521C204.861 49.4149 206.796 58.0447 208.739 66.6676C211.591 58.1681 212.364 49.2779 214.731 40.5864H234.978C234.636 41.9436 234.424 43.006 234.096 44.0341C231.018 53.5687 227.926 63.0965 224.813 72.6174C223.151 77.7034 221.544 82.8099 219.697 87.8205C218.801 90.2607 217.57 92.6118 216.202 94.8258C213.048 99.9392 208.11 102.53 202.384 103.243C196.399 103.99 190.373 103.634 184.121 101.783C184.025 97.9789 184.08 94.1541 184.101 90.062C185.852 90.1991 187.384 90.3567 188.916 90.4253C190.052 90.4733 191.208 90.5213 192.329 90.3636C195.975 89.8632 197.781 86.95 196.522 83.4542C192.411 71.9867 188.232 60.5466 184.094 49.0859C183.136 46.4332 182.22 43.76 181.022 40.3601L181.016 40.3739Z" fill="#333333"/>
<path d="M371.244 40.8949C374.309 40.1821 387.285 40.1889 390.37 40.9224C390.924 47.1462 390.281 53.5209 391.204 60.0052C394.378 53.5346 397.559 47.0639 400.76 40.5453H420.966C421.568 43.15 421.752 78.9372 421.226 83.6942C418.866 84.3934 406.239 84.5031 402.333 83.7971C402.08 77.4704 402.388 71.0409 402.176 64.632C401.923 64.5771 401.663 64.5223 401.41 64.4675C398.304 70.9724 395.192 77.4773 392.039 84.0713H371.532C371.422 83.9547 371.34 83.8725 371.265 83.7834C371.196 83.7011 371.087 83.612 371.073 83.516C371.012 83.0636 370.93 82.6112 370.93 82.1588C370.93 68.7926 370.943 55.4332 370.971 42.067C370.971 41.738 371.121 41.409 371.251 40.9018L371.244 40.8949Z" fill="#333333"/>
<path d="M458.728 40.9015C461.485 40.2778 474.686 40.1338 479.509 40.6479C479.933 44.1437 479.659 47.756 479.707 51.3478C479.755 55.0012 479.721 58.6478 479.721 62.3012V83.694C476.697 84.4069 461.984 84.4343 458.755 83.742C458.133 78.6903 458.858 73.4603 458.345 68.1138H451.183C450.622 73.4534 451.272 78.6765 450.787 84.0299H430.28C429.644 81.5828 429.5 44.6509 430.102 41.0455C432.332 40.2229 444.302 39.9624 450.534 40.6205C451.443 42.9716 450.821 45.4872 450.937 47.9342C451.047 50.299 450.965 52.6706 450.965 55.2616H458.297C458.892 50.5389 458.167 45.7614 458.742 40.9015H458.728Z" fill="#333333"/>
<path d="M309.453 83.5777V40.9155C312.107 40.23 326.205 40.1478 329.899 40.8332C330.028 46.7006 329.864 52.6777 330.309 58.7165C333.189 56.2489 334.584 52.8696 336.588 49.9427C338.647 46.9405 340.487 43.7943 342.628 40.3739C350.022 40.3739 357.574 40.3534 365.919 40.3876C360.652 47.9207 355.85 54.782 350.83 61.9655C355.666 69.1285 360.536 76.3394 365.454 83.6394C362.773 84.3728 349.037 84.5784 342.642 84.0506C338.565 78.1009 334.94 71.7263 330.453 64.9815C329.577 68.8817 330.049 71.932 329.96 74.9411C329.871 77.8817 329.94 80.829 329.94 83.6873C326.369 84.551 311.731 84.4208 309.453 83.5777Z" fill="#333333"/>
<path d="M71.7581 52.1904H90.8765V59.3602C90.4524 59.7235 89.8094 60.3541 89.0844 60.8682C80.0553 67.3114 78.9746 79.9716 85.4249 87.82C86.9913 89.7255 88.9065 91.35 90.9518 93.3858V114.662C88.2909 115.272 75.7665 115.402 71.7992 114.902C71.7239 114.813 71.6418 114.738 71.5734 114.642C71.505 114.552 71.4093 114.456 71.4024 114.361C71.3477 113.565 71.2656 112.77 71.2656 111.975C71.2861 92.3371 71.3067 72.6922 71.3477 53.0541C71.3477 52.8553 71.5256 52.6565 71.7513 52.1973L71.7581 52.1904Z" fill="#333333"/>
<path d="M97.881 60.931C104.523 61.1161 111.548 66.2021 111.349 74.9004C111.144 84.0786 103.907 88.534 97.1081 88.342C90.7536 88.1638 83.756 83.5096 83.7971 74.6331C83.8381 65.5852 91.4171 60.7185 97.8742 60.931H97.881Z" fill="#333333"/>
</svg>
