<svg width="460" height="143" viewBox="0 0 460 143" fill="none" xmlns="http://www.w3.org/2000/svg">
<path d="M206.879 79.4709C199.261 66.2444 191.764 53.2304 184.078 39.9052C191.673 26.7166 199.276 13.5129 206.887 0.293945H252.807C260.387 13.4446 268.005 26.6635 275.638 39.8976C267.96 53.2228 260.402 66.3355 252.83 79.4785H206.879V79.4709ZM268.111 39.89C261.674 28.72 255.268 17.6106 249.081 6.88064H210.612C204.236 17.9521 197.944 28.8717 191.605 39.8824C197.974 50.9463 204.267 61.8735 210.552 72.778H249.172C255.51 61.7825 261.742 50.9691 268.126 39.89H268.111Z" fill="#333333"/>
<path d="M59.7341 139.715V128.227H47.0576V139.776C48.0572 140.323 49.0189 140.854 49.9882 141.377C46.1716 142.432 42.3248 142.242 38.2734 141.597C39.2579 141.059 40.2347 140.527 41.4161 139.882C41.5902 139.169 41.9537 138.327 41.9613 137.485C42.0143 130.67 41.931 123.848 42.0446 117.026C42.09 114.317 40.3635 113.475 38.3264 112.367H50.3138C50.3744 112.504 50.4274 112.633 50.488 112.769C49.9503 113.012 49.4127 113.24 48.8826 113.49C48.3298 113.756 47.7922 114.044 47.0122 114.439V125.616H59.9916C59.9916 122.406 60.2945 119.25 59.8477 116.207C59.6584 114.886 57.9318 113.786 56.9626 112.655C58.2272 111.927 64.3913 111.676 68.4577 112.655C67.178 113.308 66.1708 113.816 64.9516 114.431V139.738C66.0951 140.323 67.0719 140.823 68.0488 141.324C64.2549 142.485 60.4156 142.182 56.334 141.597C57.2882 141.066 58.2423 140.535 59.7417 139.708L59.7341 139.715Z" fill="#333333"/>
<path d="M454.919 142.561C448.801 135.109 442.682 127.658 436.086 119.614V139.662C437.169 140.277 438.199 140.854 439.229 141.438C439.199 141.597 439.161 141.764 439.13 141.924H429.945C433.671 140.801 433.587 137.94 433.519 134.942C433.413 130.397 433.262 125.829 433.557 121.299C433.837 116.996 432.845 113.862 428.203 112.435H436.215C441.569 118.999 447.218 125.912 452.981 132.969C454.207 129.479 454.094 117.527 452.867 114.014C452.004 113.687 451.027 113.316 450.058 112.951L450.194 112.329H459.493L459.675 112.86C458.751 113.278 457.835 113.687 456.237 114.401V142.265C455.79 142.364 455.351 142.455 454.904 142.554L454.919 142.561Z" fill="#333333"/>
<path d="M363.834 114.195C362.532 113.702 361.555 113.33 360.578 112.958C360.616 112.761 360.654 112.571 360.699 112.374H383.137C383.288 114.332 383.44 116.312 383.599 118.301L382.902 118.93C380.1 111.365 374.141 115.076 369.082 114.059V124.849C375.769 126.299 377.866 125.684 380.343 121.723C381.024 124.842 380.994 127.976 380.418 132.066C379.404 130.26 378.828 129.228 378.093 127.923H369.143V139.852C375.443 140.626 381.319 141.521 384.81 134.312C385.038 134.57 385.265 134.828 385.484 135.086C384.75 137.393 384.015 139.7 383.266 142.067H360.79L360.601 141.559C361.608 140.997 362.608 140.436 363.834 139.753V114.195Z" fill="#333333"/>
<path d="M292.946 142.083H281.383L281.194 141.56C282.193 141.036 283.193 140.505 284.586 139.776V114.424C283.254 113.839 282.193 113.369 280.898 112.792C281.413 112.443 281.694 112.086 281.974 112.094C286.752 112.185 291.561 112.041 296.301 112.526C300.92 112.997 303.805 116.768 303.586 121.139C303.359 125.601 300.193 128.53 295.332 128.735C293.704 128.803 292.068 128.743 290.039 128.743V139.784C290.985 140.292 292.023 140.846 293.06 141.408C293.022 141.635 292.984 141.855 292.939 142.083H292.946ZM289.872 126.443C293.113 127.347 295.559 127.111 297.232 124.433C298.633 122.186 298.338 118.301 296.649 116.298C295.014 114.355 292.954 113.991 289.872 115.152V126.443Z" fill="#333333"/>
<path d="M190.226 128.765V139.844C191.529 140.451 192.574 140.937 193.619 141.423C193.573 141.612 193.535 141.802 193.49 141.992H181.336C182.737 141.066 183.653 140.466 184.887 139.654V114.484C183.835 113.938 182.79 113.399 181.745 112.868C181.745 112.678 181.745 112.488 181.745 112.298C182.767 112.23 183.782 112.094 184.797 112.116C188.575 112.185 192.362 112.109 196.118 112.45C200.919 112.89 204.228 116.631 204.061 120.972C203.887 125.457 200.472 128.591 195.512 128.765C193.884 128.826 192.248 128.773 190.226 128.773V128.765ZM190.09 126.344C194.315 127.285 196.216 126.747 197.662 124.387C199.063 122.095 198.889 118.84 197.238 116.593C195.671 114.461 193.558 113.975 190.09 115.053V126.337V126.344Z" fill="#333333"/>
<path d="M8.54186 128.751V139.746C9.79891 140.376 10.8515 140.907 11.8965 141.431C11.8662 141.605 11.8359 141.772 11.8056 141.947H0.302898C0.242318 141.787 0.181739 141.636 0.121158 141.476C1.02987 140.991 1.94615 140.505 3.18048 139.845V114.265C2.12789 113.832 1.11317 113.422 0 112.967C0.196887 112.709 0.408916 112.216 0.605802 112.223C5.61885 112.299 10.6698 112.087 15.6374 112.656C19.9689 113.149 22.8086 117.277 22.4148 121.314C21.9983 125.647 18.939 128.493 14.3349 128.736C12.4796 128.834 10.6167 128.751 8.54186 128.751ZM8.51157 115.023V126.345C12.7295 127.324 14.5015 126.854 16.0008 124.448C17.3942 122.225 17.2427 118.78 15.6525 116.617C14.0471 114.424 12.0934 113.969 8.51157 115.023Z" fill="#333333"/>
<path d="M220.032 111.867C225.484 112.178 230.997 112.064 236.358 112.929C240.531 113.604 242.78 117.74 242.25 121.83C241.735 125.799 238.781 128.462 234.48 128.713C232.625 128.819 230.754 128.728 228.619 128.728V139.86C229.793 140.422 230.762 140.885 231.731 141.348C231.709 141.53 231.678 141.712 231.656 141.901H219.305C220.948 141.029 221.963 140.49 223.114 139.875C223.288 139.048 223.621 138.206 223.629 137.356C223.667 130.663 223.613 123.963 223.651 117.27C223.667 114.682 222.515 113.233 219.676 113.187C219.797 112.747 219.911 112.307 220.032 111.867ZM228.627 126.505C231.845 127.362 234.298 127.043 235.995 124.41C237.297 122.377 237.115 118.514 235.571 116.556C233.806 114.318 231.534 113.832 228.627 114.826V126.497V126.505Z" fill="#333333"/>
<path d="M323.106 114.181C321.538 113.68 320.614 113.384 319.713 113.088C319.547 111.745 329.058 111.563 332.579 112.876C331.261 113.361 330.141 113.771 328.565 114.348C327.884 122.627 327.96 130.959 328.437 139.625C334.669 139.708 340.977 141.734 343.976 133.766C344.241 133.987 344.498 134.207 344.763 134.427C344.051 136.885 343.347 139.344 342.582 142H319.925C319.865 141.856 319.804 141.719 319.736 141.575C320.751 141.036 321.758 140.497 323.106 139.776V114.173V114.181Z" fill="#333333"/>
<path d="M137.747 134.456C136.967 136.914 136.18 139.373 135.339 142.021H112.697C112.637 141.87 112.576 141.718 112.516 141.558C113.538 141.027 114.56 140.496 115.901 139.798V114.347C114.606 113.823 113.583 113.413 112.569 113.003C116.703 111.653 120.921 112.252 125.268 112.799C124.715 113.026 124.071 113.148 123.625 113.512C122.723 114.255 121.209 115.113 121.201 115.948C121.08 123.513 121.232 131.079 121.323 138.645C121.323 138.849 121.595 139.047 122.057 139.677C127.479 139.578 133.87 141.991 136.824 133.712C137.134 133.963 137.437 134.213 137.747 134.463V134.456Z" fill="#333333"/>
<path d="M401.655 141.421C402.594 140.959 403.533 140.496 404.759 139.881V114.392C403.563 113.823 402.578 113.352 401.602 112.882C401.602 112.722 401.609 112.57 401.617 112.411H413.483C413.528 112.555 413.574 112.707 413.619 112.851C412.673 113.238 411.726 113.618 410.204 114.24C409.28 122.64 409.765 131.223 409.909 139.722C411.408 140.405 412.415 140.867 413.422 141.323C413.422 141.573 413.422 141.831 413.422 142.082C409.56 142.416 405.683 142.218 401.806 142.211C401.753 141.945 401.708 141.679 401.655 141.414V141.421Z" fill="#333333"/>
<path d="M93.1308 139.79C94.2743 140.382 95.2436 140.875 96.2053 141.376C96.2053 141.535 96.2053 141.702 96.1977 141.862H84.0513C85.4598 141.065 86.4367 140.511 87.618 139.843C87.777 139.145 88.1254 138.303 88.1254 137.461C88.1708 130.661 88.1027 123.855 88.1784 117.055C88.2087 114.399 86.8608 113.201 83.9453 113.276C84.1043 112.988 84.2634 112.707 84.43 112.419H97.114C95.3042 113.367 94.2894 113.899 93.1233 114.506V139.783L93.1308 139.79Z" fill="#333333"/>
<path d="M153.909 141.362C154.871 140.846 155.832 140.33 156.961 139.723V114.552C155.885 113.999 154.825 113.452 153.757 112.906C153.757 112.754 153.742 112.595 153.742 112.443H166.54C164.73 113.232 163.708 113.68 162.057 114.401C161.724 122.725 161.951 131.224 161.928 139.632C163.481 140.383 164.556 140.899 165.624 141.415C165.593 141.59 165.555 141.757 165.525 141.931H153.977C153.954 141.742 153.924 141.544 153.901 141.355L153.909 141.362Z" fill="#333333"/>
<path d="M229.286 24.4638C225.772 25.7943 224.01 28.2934 224 31.9611C223.993 39.2763 223.985 46.5991 224 53.9142C224.008 58.9377 224.114 59.0667 228.733 60.5389C226.507 61.9275 216.67 62.049 212.815 60.4403C218.404 60.1443 218.29 56.4943 218.275 52.8898C218.26 50.158 218.275 47.4186 218.275 44.406C215.988 44.5654 214.254 44.7627 212.52 44.793C206.545 44.8992 202.517 42.3344 200.995 37.531C199.548 32.9552 201.343 28.2124 205.47 25.7918C206.121 25.4123 206.818 25.1012 207.522 24.8356C210.998 23.5076 224.614 23.1738 229.293 24.4562L229.286 24.4638ZM218.086 27.2791C213.096 26.0346 210.188 26.9376 208.416 30.0261C206.53 33.3118 207.022 38.2518 209.476 40.6194C211.861 42.9187 214.762 43.1615 218.086 41.3176V27.2791Z" fill="#333333"/>
<path d="M246.604 61.4175C241.289 61.7135 236.2 61.6831 230.422 61.372C232.527 59.9454 234.503 59.2776 235.208 57.942C236.018 56.4092 235.829 54.2769 235.844 52.4025C235.904 45.3302 235.912 38.2502 235.836 31.1778C235.821 29.478 235.42 27.7783 235.2 26.1392C233.496 25.6232 232.239 25.2362 230.952 24.8492C231.156 24.4242 231.262 24.0296 231.361 24.0296C237.752 24.1207 244.204 23.764 250.519 24.5229C256.222 25.2058 259.697 30.0927 259.296 35.1011C258.857 40.5267 255.26 44.0705 249.346 44.632C246.991 44.8597 244.598 44.67 241.879 44.67C241.879 48.9043 241.554 53.2752 242.076 57.5399C242.235 58.8527 244.719 59.8771 246.604 61.4175ZM241.516 27.4672V41.6118C246.233 43.1599 249.043 42.4845 251.156 39.6237C253.124 36.9602 252.973 32.2023 250.83 29.2808C248.967 26.7311 246.105 26.1013 241.508 27.4748L241.516 27.4672Z" fill="#333333"/>
</svg>
