<svg width="335" height="53" viewBox="0 0 335 53" fill="none" xmlns="http://www.w3.org/2000/svg">
<g clip-path="url(#clip0_2001_892)">
<path d="M32.3036 34.4427L22.9124 6.90588L13.637 34.4427H32.3036ZM18.3867 0.0292969H27.5926L45.4792 52.9683H38.6134L34.3811 40.5798H11.5594L7.36582 52.9683H0.5L18.3867 0.0292969Z" fill="white"/>
<path d="M52.0469 51.7943L80.2902 6.25024H53.159V0.0292969H91.4268V1.27958L63.3303 46.755H91.0561V52.9683H52.0469V51.7943Z" fill="white"/>
<mask id="mask0_2001_892" style="mask-type:luminance" maskUnits="userSpaceOnUse" x="-10" y="-65" width="358" height="178">
<path d="M347.721 -64.0107H-9.70312V112.996H347.721V-64.0107Z" fill="white"/>
</mask>
<g mask="url(#mask0_2001_892)">
<path d="M119.839 46.9685C131.339 47.0371 137.093 38.6739 137.093 26.4988C137.093 14.3237 131.339 6.09777 119.839 6.02915C108.34 5.96054 102.655 14.3237 102.586 26.4988C102.516 38.6739 108.34 46.8998 119.839 46.9685ZM95.8359 26.4988C95.8359 10.8321 104.447 0.0292969 119.839 0.0292969C135.231 0.0292969 143.843 10.8245 143.843 26.4988C143.843 42.1655 135.231 52.9683 119.839 52.9683C104.447 52.9683 95.8359 42.1731 95.8359 26.4988Z" fill="white"/>
</g>
<mask id="mask1_2001_892" style="mask-type:luminance" maskUnits="userSpaceOnUse" x="-10" y="-65" width="358" height="178">
<path d="M347.721 -64.0107H-9.70312V112.996H347.721V-64.0107Z" fill="white"/>
</mask>
<g mask="url(#mask1_2001_892)">
<path d="M153.305 0.0292969H159.985L187.858 41.3879V0.0292969H194.538V52.9683H187.858L159.985 11.5716V52.9683H153.305V0.0292969Z" fill="white"/>
</g>
<mask id="mask2_2001_892" style="mask-type:luminance" maskUnits="userSpaceOnUse" x="-10" y="-65" width="358" height="178">
<path d="M347.721 -64.0107H-9.70312V112.996H347.721V-64.0107Z" fill="white"/>
</mask>
<g mask="url(#mask2_2001_892)">
<path d="M270.727 0.0292969H277.33V52.9683H270.727V0.0292969Z" fill="white"/>
</g>
<mask id="mask3_2001_892" style="mask-type:luminance" maskUnits="userSpaceOnUse" x="-10" y="-65" width="358" height="178">
<path d="M347.721 -64.0107H-9.70312V112.996H347.721V-64.0107Z" fill="white"/>
</mask>
<g mask="url(#mask3_2001_892)">
<path d="M309.656 6.24262H291.43V0.0292969H334.486V6.24262H316.259V52.9683H309.656V6.24262Z" fill="white"/>
</g>
<mask id="mask4_2001_892" style="mask-type:luminance" maskUnits="userSpaceOnUse" x="42" y="-39" width="254" height="127">
<path d="M295.685 -38.2744H42.3359V87.1915H295.685V-38.2744Z" fill="white"/>
</mask>
<g mask="url(#mask4_2001_892)">
<path d="M246.612 6.54403H203.617V0H246.612V6.54403Z" fill="white"/>
</g>
<mask id="mask5_2001_892" style="mask-type:luminance" maskUnits="userSpaceOnUse" x="42" y="-62" width="254" height="127">
<path d="M295.653 -61.3555H42.3047V64.1104H295.653V-61.3555Z" fill="white"/>
</mask>
<g mask="url(#mask5_2001_892)">
<path d="M246.603 6.54403H230.656V0H246.603V6.54403Z" fill="#95C11F"/>
</g>
<mask id="mask6_2001_892" style="mask-type:luminance" maskUnits="userSpaceOnUse" x="42" y="-39" width="254" height="127">
<path d="M295.716 -38.1025H42.3672V87.3634H295.716V-38.1025Z" fill="white"/>
</mask>
<g mask="url(#mask6_2001_892)">
<path d="M246.675 29.797H203.68V23.2529H246.675V29.797Z" fill="white"/>
</g>
<mask id="mask7_2001_892" style="mask-type:luminance" maskUnits="userSpaceOnUse" x="42" y="-39" width="254" height="127">
<path d="M295.716 -38.1025H42.3672V87.3634H295.716V-38.1025Z" fill="white"/>
</mask>
<g mask="url(#mask7_2001_892)">
<path d="M246.665 29.797H230.719V23.2529H246.665V29.797Z" fill="#95C11F"/>
</g>
<mask id="mask8_2001_892" style="mask-type:luminance" maskUnits="userSpaceOnUse" x="42" y="-39" width="254" height="127">
<path d="M295.622 -38.1357H42.2734V87.3302H295.622V-38.1357Z" fill="white"/>
</mask>
<g mask="url(#mask8_2001_892)">
<path d="M246.581 52.9942H203.586V46.4502H246.581V52.9942Z" fill="white"/>
</g>
<mask id="mask9_2001_892" style="mask-type:luminance" maskUnits="userSpaceOnUse" x="42" y="-15" width="254" height="126">
<path d="M295.622 -14.9062H42.2734V110.56H295.622V-14.9062Z" fill="white"/>
</mask>
<g mask="url(#mask9_2001_892)">
<path d="M246.587 52.9933H230.641V46.4492H246.587V52.9933Z" fill="#95C11F"/>
</g>
</g>
<defs>
<clipPath id="clip0_2001_892">
<rect width="334" height="53" fill="white" transform="translate(0.5)"/>
</clipPath>
</defs>
</svg>
